<?xml version="1.0" encoding="utf-8"?>
<!-- Generator: Adobe Illustrator 26.3.1, SVG Export Plug-In . SVG Version: 6.00 Build 0)  -->
<svg version="1.1" id="Layer_1" xmlns="http://www.w3.org/2000/svg" xmlns:xlink="http://www.w3.org/1999/xlink" x="0px" y="0px"
	 viewBox="0 0 44.1 30.53" style="enable-background:new 0 0 44.1 30.53;" xml:space="preserve">
<style type="text/css">
	.st0{fill:#597664;}
</style>
<g>
	<g>
		<path class="st0" d="M44.1,3.39v0.3c0,0.31-0.16,0.59-0.43,0.74l-21.2,12.1c-0.26,0.15-0.59,0.15-0.85,0L0.43,4.43
			C0.16,4.28,0,4,0,3.69V2.53c0-1.25,1.01-2.27,2.27-2.27h38.71C42.71,0.26,44.1,1.66,44.1,3.39z"/>
	</g>
	<g>
		<path class="st0" d="M22.7,22.96l21.4-12.22V28c0,1.25-1.02,2.27-2.27,2.27H2.27C1.01,30.26,0,29.25,0,28V10.75l21.4,12.21
			c0.2,0.12,0.43,0.18,0.65,0.18C22.28,23.14,22.5,23.08,22.7,22.96z"/>
	</g>
</g>
</svg>
