<?xml version="1.0" encoding="utf-8"?>
<!-- Generator: Adobe Illustrator 26.3.1, SVG Export Plug-In . SVG Version: 6.00 Build 0)  -->
<svg version="1.1" id="Layer_1" xmlns="http://www.w3.org/2000/svg" xmlns:xlink="http://www.w3.org/1999/xlink" x="0px" y="0px"
	 viewBox="0 0 30 30" style="enable-background:new 0 0 30 30;" xml:space="preserve">
<style type="text/css">
	.st0{fill:#597664;}
</style>
<g id="phone_4_">
	<path class="st0" d="M7.2,2.49l1.1-0.82c0.54-0.4,1.32-0.27,1.73,0.29l3.56,4.79c0.48,0.64,0.36,1.54-0.26,2l-0.84,0.63
		c-1.08,0.8-1.28,2.36-0.45,3.48l5.85,7.87c0.83,1.12,2.38,1.38,3.46,0.57l0.84-0.63c0.62-0.46,1.51-0.31,1.99,0.33l3.56,4.8
		c0.41,0.56,0.31,1.34-0.23,1.74l-1.1,0.82c-3.39,2.52-8.96,0.77-15.6-8.16l-0.31-0.41C3.88,10.85,3.81,5.01,7.2,2.49z"/>
</g>
</svg>
